<?xml version="1.0" encoding="utf-8"?>
<!-- Generator: Adobe Illustrator 19.1.1, SVG Export Plug-In . SVG Version: 6.00 Build 0)  -->
<svg version="1.1" id="Shape_1_5_" xmlns="http://www.w3.org/2000/svg" xmlns:xlink="http://www.w3.org/1999/xlink" x="0px" y="0px"
	 viewBox="251.4 243 884.6 302.4" style="enable-background:new 251.4 243 884.6 302.4;" xml:space="preserve">
<style type="text/css">
	.st0{fill:#323232;}
</style>
<g id="Shape_1">
	<g>
		<path class="st0" d="M446,466.5c-3.7,0-6.6,3-6.6,6.6s3,6.6,6.6,6.6c3.7,0,6.6-3,6.6-6.6S449.6,466.5,446,466.5z M446,485.3
			c-1.5,0-2.8,1.3-2.8,2.8c0,1.5,1.3,2.8,2.8,2.8c1.5,0,2.8-1.3,2.8-2.8C448.8,486.6,447.5,485.3,446,485.3z M453.4,493.9v22.7
			c6.6-1.1,12.8-3.7,18.1-7.5l-16.1-16.1C454.8,493.4,454.1,493.7,453.4,493.9z M465.9,482.6l16.1,16.1c3.7-5.3,6.4-11.4,7.5-18.1
			h-22.7C466.5,481.3,466.2,481.9,465.9,482.6z M465.9,463.7c0.3,0.6,0.6,1.3,0.8,2h22.7c-1.1-6.6-3.7-12.8-7.5-18.1L465.9,463.7z
			 M436.6,453.2c0.6-0.3,1.3-0.6,2-0.8v-22.7c-6.6,1.1-12.8,3.7-18.1,7.5L436.6,453.2z M446,400.9c-39.9,0-72.2,32.3-72.2,72.2
			s32.3,72.2,72.2,72.2c39.9,0,72.2-32.3,72.2-72.2S485.9,400.9,446,400.9z M446,524.7c-28.5,0-51.6-23.1-51.6-51.6
			c0-28.5,23.1-51.6,51.6-51.6c28.5,0,51.6,23.1,51.6,51.6C497.6,501.6,474.5,524.7,446,524.7z M446,461c1.5,0,2.8-1.3,2.8-2.8
			c0-1.5-1.3-2.8-2.8-2.8c-1.5,0-2.8,1.3-2.8,2.8C443.2,459.7,444.4,461,446,461z M471.5,437.2c-5.3-3.7-11.4-6.4-18.1-7.5v22.7
			c0.7,0.2,1.3,0.5,2,0.8L471.5,437.2z M426.1,463.7L410,447.7c-3.7,5.3-6.4,11.4-7.5,18.1h22.7C425.5,465,425.7,464.4,426.1,463.7z
			 M420.5,509.1c5.3,3.7,11.4,6.4,18.1,7.5v-22.7c-0.7-0.2-1.3-0.5-2-0.8L420.5,509.1z M425.2,480.6h-22.7
			c1.1,6.6,3.7,12.8,7.5,18.1l16.1-16.1C425.8,481.9,425.5,481.3,425.2,480.6z M433.8,473.1c0-1.5-1.3-2.8-2.8-2.8
			c-1.5,0-2.8,1.3-2.8,2.8s1.3,2.8,2.8,2.8C432.6,476,433.8,474.7,433.8,473.1z M458.1,473.1c0,1.5,1.3,2.8,2.8,2.8
			c1.5,0,2.8-1.3,2.8-2.8s-1.3-2.8-2.8-2.8C459.4,470.3,458.1,471.6,458.1,473.1z M1005.6,466.5c-3.7,0-6.6,3-6.6,6.6s3,6.6,6.6,6.6
			s6.6-3,6.6-6.6S1009.3,466.5,1005.6,466.5z M996.2,453.2c0.6-0.3,1.3-0.6,2-0.8v-22.7c-6.6,1.1-12.8,3.7-18.1,7.5L996.2,453.2z
			 M1005.6,485.3c-1.5,0-2.8,1.3-2.8,2.8c0,1.5,1.3,2.8,2.8,2.8s2.8-1.3,2.8-2.8C1008.4,486.6,1007.2,485.3,1005.6,485.3z
			 M1013.1,493.9v22.7c6.6-1.1,12.8-3.7,18.1-7.5l-16.1-16.1C1014.4,493.4,1013.8,493.7,1013.1,493.9z M1026.4,480.6
			c-0.2,0.7-0.5,1.3-0.8,2l16.1,16.1c3.7-5.3,6.4-11.4,7.5-18.1L1026.4,480.6L1026.4,480.6z M1131.3,389.2
			c-9.8-15-34.9-20.2-54-26.5c-133.5-32.2-177.9-21.7-200.2-24.9c-4.5-1.2-8.5-5.1-12.2-7.4c-8.1-5-16.4-9.4-24.4-14.3
			c-13.1-8-73.7-41.1-90-47.1c-36-13.1-92.8-23.7-229.8-12.7c-5.6-1.5-8.9-6-14.8-7.4c-5.8-1.4-11.2,1.7-15.4,2.6
			c0.1,4.5-0.3,8.1-1.1,11.6c-26.8,11.3-53.9,20-80.5,31.2c-11.1,4.7-22.6,9.3-33.9,14.3c-7,3.1-13.8,7.5-21.7,10.1
			c-8.6,2.8-18.1,1.5-27.5,3.7c-17.3,4-36,4.5-55.1,4.8c-2.2,3.7-6,7.5-6.9,12.2c3.3,1,4.4,3.3,4.2,7.9c-5.8,8.7-4.3,21-4.2,34.9
			c-12.4,6.4-14.3,29.7-11.1,48.2c-0.4,1.6-0.7,3.2-1.1,4.8c0.7,5.2,2.4,10.7,2.6,16.4c4.7,3.1,10,8.2,13.2,12.7
			c1.6,2.2,2.4,6,5.3,6.9c15.6,11.4,94.8,13.8,94.8,13.8l4.2,0.2c-0.6-3.9-1-8-1-12.1c0-41.5,33.6-75.1,75.1-75.1
			c41.5,0,75.1,33.6,75.1,75.1c0,7-1,18.3-2.7,24.7l416.1-0.7c-2.5-7.5-3.9-15.6-3.9-23.9c0-41.5,33.6-75.1,75.1-75.1
			c41.5,0,75.1,33.6,75.1,75.1c0,7.3-1,14.3-3,20.9l4.3-0.1c0,0,32.8-1.6,40.8-5.3c8-3.7,11.1-14.3,11.1-14.3l-2.1-22.2
			C1131.8,452.2,1141.7,405,1131.3,389.2z M466.7,334.6c-24.9-16.5-11.7-35.8-12.4-35.8c-0.4,0.4-0.7,0.6-0.9,0.8
			c0.5-0.6,0.8-0.8,0.9-0.8c6.4-5.7,43-31.3,172.8-31.5c4.1,22.8,8.1,52.7,12.2,75.4C587.1,341.2,484.3,342.1,466.7,334.6z
			 M801.4,343.1c-11.4,0-125,0-125,0s-18.3-48.3-24.9-75.2c0.8,0.1,23.3,1.1,23.3,1.1s44.6,5.1,72.5,14.3
			c22,7.3,65.4,36.4,66.2,38.1C800.5,322,797.4,332.3,801.4,343.1z M1005.6,400.9c-39.9,0-72.2,32.3-72.2,72.2s32.3,72.2,72.2,72.2
			s72.2-32.3,72.2-72.2S1045.5,400.9,1005.6,400.9z M1005.6,524.7c-28.5,0-51.6-23.1-51.6-51.6c0-28.5,23.1-51.6,51.6-51.6
			c28.5,0,51.6,23.1,51.6,51.6C1057.2,501.6,1034.1,524.7,1005.6,524.7z M985.7,463.7l-16.1-16.1c-3.7,5.3-6.4,11.4-7.5,18.1h22.7
			C985.1,465,985.4,464.4,985.7,463.7z M993.5,473.1c0-1.5-1.3-2.8-2.8-2.8c-1.5,0-2.8,1.3-2.8,2.8s1.3,2.8,2.8,2.8
			C992.2,476,993.5,474.7,993.5,473.1z M1005.6,461c1.5,0,2.8-1.3,2.8-2.8c0-1.5-1.3-2.8-2.8-2.8s-2.8,1.3-2.8,2.8
			C1002.8,459.7,1004.1,461,1005.6,461z M1031.1,437.2c-5.3-3.7-11.4-6.4-18.1-7.5v22.7c0.7,0.2,1.3,0.5,2,0.8L1031.1,437.2z
			 M1017.8,473.1c0,1.5,1.3,2.8,2.8,2.8c1.5,0,2.8-1.3,2.8-2.8s-1.3-2.8-2.8-2.8C1019.1,470.3,1017.8,471.6,1017.8,473.1z
			 M980.2,509.1c5.3,3.7,11.4,6.4,18.1,7.5v-22.7c-0.7-0.2-1.3-0.5-2-0.8L980.2,509.1z M984.9,480.6h-22.7
			c1.1,6.6,3.7,12.8,7.5,18.1l16.1-16.1C985.4,481.9,985.1,481.3,984.9,480.6z M1026.4,465.7h22.7c-1.1-6.6-3.7-12.8-7.5-18.1
			l-16.1,16.1C1025.9,464.4,1026.2,465,1026.4,465.7z"/>
	</g>
</g>
</svg>
