<?xml version="1.0" encoding="utf-8"?>
<!-- Generator: Adobe Illustrator 19.1.1, SVG Export Plug-In . SVG Version: 6.00 Build 0)  -->
<svg version="1.1" id="Layer_1" xmlns="http://www.w3.org/2000/svg" xmlns:xlink="http://www.w3.org/1999/xlink" x="0px" y="0px"
	 viewBox="-216 377 178.5 40" style="enable-background:new -216 377 178.5 40;" xml:space="preserve">
<style type="text/css">
	.st0{fill:#FFFFFF;}
</style>
<path class="st0" d="M-205.2,402.5v2.5c-0.1,0.9,0.1,1.7,0.5,2.5c0.3,0.5,0.8,0.8,1.4,0.8c0.1,0,0.2,0,0.3,0c0.1,0,0.2,0,0.3-0.1
	c0.7-0.1,1.2-0.6,1.3-1.2c0.1-0.8,0.2-1.5,0.2-2.3c0-1.2-0.6-2.3-1.7-2.8c-1.2-0.6-2.4-1.1-3.7-1.5c-0.3-0.1-0.6-0.2-0.9-0.2
	c-0.3-0.1-0.6-0.2-0.9-0.2c-0.5-0.1-0.9-0.3-1.3-0.4c-0.4-0.1-0.8-0.3-1.1-0.5c-2-0.8-3.6-2.4-4.3-4.4c-0.6-1.9-0.9-3.9-0.9-5.9
	v-0.3c0-3.6,1-6.3,3.1-8.3s5.1-2.9,9.3-2.7c2.3-0.1,4.7,0.3,6.9,1.1c1.8,0.7,3.6,1.6,5.2,2.7v9.2h-9.9v-2.1c0.1-0.8-0.1-1.5-0.6-2.1
	c-0.3-0.4-0.8-0.6-1.2-0.6h-0.1c-0.4,0-0.9,0.2-1.2,0.5c-0.3,0.3-0.6,0.7-0.6,1.2c0,0.1,0,0.2,0,0.3v0.3c-0.1,1.1,0.4,2.1,1.3,2.7
	c0.9,0.6,1.9,1,2.9,1.3c0.4,0.1,0.8,0.2,1.2,0.3c0.4,0.1,0.8,0.2,1.1,0.2c0.1,0,0.2,0.1,0.3,0.1c0.1,0,0.2,0,0.3,0.1
	c2.5,0.5,4.7,2.1,6.1,4.2c1.2,2.1,1.8,4.5,1.8,6.9c0,0.9-0.1,1.8-0.2,2.7c-0.1,1-0.3,1.9-0.6,2.8c-0.7,2.8-2,4.6-3.8,5.6
	c-1.8,1-3.8,1.6-5.8,1.8c-0.6,0.1-1.1,0.2-1.7,0.2s-1.1,0.1-1.7,0.1c-0.8,0-1.6-0.1-2.4-0.2c-1.1-0.2-2.2-0.4-3.2-0.7
	c-1.3-0.4-2.5-0.9-3.7-1.5c-1-0.4-1.9-1.2-2.4-2.2v-9.9H-205.2z M-175,377.7v6.7c-0.6,0.5-0.9,1.1-1.1,1.9c-0.1,0.7-0.2,1.4-0.2,2.1
	v17c0,0.8,0,1.6,0.2,2.4c0.1,0.5,0.3,0.9,0.5,1.3l0.2,0.3l0.3,0.3v6.7h-13.3v-6.7c0.6-0.4,1-1.1,1.2-1.8c0.1-0.7,0.1-1.3,0.1-2v-18
	c0-0.6,0-1.2-0.1-1.8c-0.2-0.7-0.6-1.2-1.2-1.5v-6.7C-188.3,377.7-175,377.7-175,377.7z M-158.9,377.7l3.4,14.8l3.4-14.8h13v6.7
	c0,0.1-0.1,0.1-0.2,0.2c-0.1,0-0.1,0.1-0.2,0.2c-0.4,0.5-0.7,1.1-0.8,1.7c-0.1,0.7-0.1,1.9-0.1,3.6v14.9c0,0.9,0,1.9,0.2,2.8
	c0.1,0.6,0.5,1.2,1.1,1.5v7h-12.7v-7.1c0.6-0.2,1-0.6,1.1-1.2c0.1-0.8,0.1-1.6,0.1-2.5v-9.8l-4.6,20.6h-3.1l-4.6-20.2v8.9
	c0,0.9,0,1.8,0.2,2.7c0.1,0.7,0.5,1.3,1.1,1.6v7h-10.8v-7.1c0.6,0,1-0.4,1.2-0.9c0.1-0.6,0.1-1.2,0.1-1.8v-18.8c0-0.6,0-1.3-0.1-1.9
	c-0.1-0.6-0.6-1.1-1.2-1.3v-6.8H-158.9L-158.9,377.7z M-136.5,404.6v-15.9c0-3.9,1-6.8,3.1-8.7c2.1-2,5.4-2.9,9.8-2.9
	c4.5,0,7.7,0.9,9.5,2.7c1.9,1.8,2.8,4.7,2.8,8.6v17.3c0,3.8-0.9,6.6-2.7,8.5s-5,2.9-9.7,2.9c-4.6,0-8-1-10-3.1
	C-135.5,411.8-136.5,408.7-136.5,404.6L-136.5,404.6z M-121.7,404.9v-16.3c0-0.8-0.1-1.6-0.2-2.3c-0.3-0.6-0.9-1-1.6-0.8
	c-0.7-0.1-1.3,0.3-1.6,0.8c-0.4,0.7-0.6,1.6-0.5,2.4v16.4c0,0.8,0.1,1.6,0.4,2.3c0.3,0.7,1,1.2,1.7,1.1c0.7,0.1,1.3-0.4,1.5-1
	C-121.8,406.7-121.6,405.9-121.7,404.9C-121.7,405-121.7,404.9-121.7,404.9z M-97,377.7l5.8,17.4v-7.4c0-0.6,0-1.1-0.1-1.7
	c-0.1-0.6-0.4-1.1-0.8-1.5v-6.8h10.8v6.7c-0.5,0.5-0.9,1.1-1.1,1.8c-0.1,0.7-0.2,1.5-0.2,2.2v28h-10.2l-6.5-17.4v6
	c0,0.8,0,1.6,0.2,2.4c0.1,0.7,0.5,1.3,1.1,1.6v7.4h-10.5v-7.1c0.5-0.3,0.8-0.7,1-1.3c0.2-0.5,0.2-1,0.3-1.5c0-0.1,0-0.3,0-0.4
	s0-0.3,0-0.4v-17.7c0-0.7,0-1.3-0.1-2c-0.1-0.7-0.6-1.2-1.2-1.6v-6.8H-97L-97,377.7z M-65.6,377.7v6.7c-0.6,0.5-0.9,1.1-1.1,1.9
	c-0.1,0.7-0.2,1.4-0.2,2.1v17c0,0.8,0,1.6,0.2,2.4c0.1,0.5,0.3,0.9,0.6,1.3l0.2,0.3l0.3,0.3v6.7h-13.3v-6.7c0.6-0.4,1-1.1,1.2-1.8
	c0.1-0.7,0.1-1.3,0.1-2v-18c0-0.6,0-1.2-0.1-1.8c-0.2-0.7-0.6-1.2-1.2-1.5v-6.7C-78.9,377.7-65.6,377.7-65.6,377.7z M-37.8,377.7
	v6.7l-13.3,23.8c2.8,0.2,4.4-0.2,4.9-1.1c0.5-1.2,0.7-2.4,0.7-3.7V400h8v16.3h-26v-7.1l12.7-23.4c-1.2,0-2.4,0.2-3.5,0.6
	c-1,0.4-1.4,1.2-1.4,2.7v3.8h-7.7v-15.2H-37.8L-37.8,377.7z M-38.1,396.2c0.1,1.4-1,2.6-2.4,2.7s-2.6-1-2.7-2.4
	c-0.1-1.4,1-2.6,2.4-2.7c0.1,0,0.1,0,0.2,0C-39.2,393.7-38.1,394.8-38.1,396.2C-38.1,396.1-38.1,396.2-38.1,396.2L-38.1,396.2z
	 M-42.5,396.2c0,1,0.8,1.9,1.9,1.9c0,0,0,0,0.1,0c1,0,1.9-0.8,1.9-1.8c0,0,0,0,0-0.1c0-1.1-0.9-1.9-1.9-1.9
	C-41.7,394.2-42.5,395.1-42.5,396.2L-42.5,396.2z M-41,397.4h-0.6V395c0.3-0.1,0.6-0.1,1-0.1c0.3,0,0.6,0,0.9,0.2
	c0.2,0.1,0.2,0.3,0.2,0.5c0,0.3-0.2,0.5-0.5,0.6v0c0.2,0.1,0.4,0.3,0.5,0.6c0,0.2,0.1,0.4,0.2,0.6H-40c-0.1-0.2-0.2-0.4-0.2-0.6
	c0-0.2-0.2-0.4-0.5-0.4c0,0,0,0,0,0H-41V397.4L-41,397.4z M-41,396.1h0.3c0.3,0,0.6-0.1,0.6-0.3c0-0.2-0.2-0.4-0.5-0.4
	c-0.1,0-0.2,0-0.3,0L-41,396.1L-41,396.1z"/>
</svg>
